<svg width="22" height="22" viewBox="0 0 22 22" fill="none" xmlns="http://www.w3.org/2000/svg">
<path d="M2.85963 12.5796L2.78144 12.1743H2.36868H0.933116C0.65948 12.1743 0.5 11.9908 0.5 11.7741V10.1899C0.5 9.93686 0.695717 9.75368 0.933116 9.75368H2.36868H2.76865L2.85648 9.36347C3.09634 8.29774 3.50479 7.2794 4.10811 6.40509L4.34016 6.0688L4.05684 5.7744L3.05195 4.73021L3.052 4.73016L3.04581 4.72395C2.88141 4.55901 2.88141 4.26259 3.04581 4.09766L4.15837 2.98145C4.32105 2.81824 4.61158 2.81743 4.77554 2.979L5.77676 4.01938L6.06704 4.32101L6.41501 4.08827C7.32695 3.47832 8.34117 3.07104 9.39058 2.86726L9.79527 2.78868V2.37643V0.93617C9.79527 0.68318 9.99099 0.5 10.2284 0.5H11.8075C12.0557 0.5 12.2406 0.694006 12.2406 0.93617V2.37643V2.77583L12.6301 2.86408C13.6912 3.10446 14.719 3.5169 15.6433 4.06644L15.9721 4.26187L16.2467 3.99579L17.2875 2.98761L17.2876 2.98767L17.2938 2.98145C17.4573 2.81742 17.7499 2.81742 17.9134 2.98145L19.026 4.09766C19.1895 4.26177 19.1904 4.55605 19.0284 4.72147L17.9914 5.72597L17.6927 6.01538L17.9229 6.36183C18.531 7.27699 18.9371 8.29495 19.1404 9.34839L19.2186 9.75368H19.6313H21.0669C21.3151 9.75368 21.5 9.94769 21.5 10.1899V11.7741C21.5 12.0271 21.3043 12.2103 21.0669 12.2103H19.6313H19.2186L19.1404 12.6156C18.939 13.6596 18.5006 14.6787 17.887 15.6022L17.6649 15.9364L17.9432 16.2256L18.9481 17.2698L18.948 17.2698L18.9542 17.2761C19.1186 17.441 19.1186 17.7374 18.9542 17.9023L17.8416 19.0185C17.679 19.1817 17.3885 19.1826 17.2245 19.021L16.2232 17.9806L15.933 17.679L15.585 17.9117C14.673 18.5217 13.6588 18.929 12.6094 19.1327L12.2047 19.2113V19.6236V21.0638C12.2047 21.3168 12.009 21.5 11.7716 21.5H10.1925C9.94431 21.5 9.75938 21.306 9.75938 21.0638V19.6236V19.2113L9.35469 19.1327C8.31476 18.9308 7.29942 18.4913 6.37912 17.8757L6.04338 17.6512L5.75326 17.9322L4.71248 18.9404L4.71242 18.9403L4.70623 18.9465C4.54273 19.1106 4.25009 19.1106 4.08659 18.9465L2.97403 17.8303C2.81045 17.6662 2.80964 17.3719 2.9716 17.2065L4.00857 16.202L4.30734 15.9126L4.07713 15.5662C3.46901 14.651 3.06285 13.633 2.85963 12.5796ZM15.3423 6.6176C14.1479 5.39271 12.6875 4.66584 11.1379 4.62164C9.58348 4.57731 8.00789 5.22186 6.59371 6.60982C5.6577 7.52848 5.04535 9.08168 4.95731 10.6898C4.86864 12.3093 5.30711 14.0709 6.58595 15.3824C7.82541 16.6535 9.34591 17.3345 10.9091 17.3463C12.4733 17.3582 14.0295 16.6995 15.3384 15.3863C16.6876 14.0327 17.1206 12.2771 17.0082 10.6638C16.8967 9.06303 16.2451 7.54353 15.3423 6.6176Z" stroke="#A4AEBA"/>
</svg>
