<svg width="18" height="22" viewBox="0 0 18 22" fill="none" xmlns="http://www.w3.org/2000/svg">
<path d="M1.86192 6.11153e-05C0.841152 6.11153e-05 0 0.828292 0 1.83338V20.1666C0 21.1717 0.841152 21.9999 1.86192 21.9999H6.82705C6.90929 22.0011 6.99094 21.9861 7.06726 21.9559C7.14358 21.9257 7.21304 21.8809 7.27161 21.824C7.33018 21.7672 7.37669 21.6994 7.40844 21.6247C7.44018 21.55 7.45653 21.4698 7.45653 21.3888C7.45653 21.3078 7.44018 21.2277 7.40844 21.153C7.37669 21.0782 7.33018 21.0105 7.27161 20.9536C7.21304 20.8968 7.14358 20.8519 7.06726 20.8217C6.99094 20.7915 6.90929 20.7766 6.82705 20.7777H1.86192C1.50735 20.7777 1.24128 20.5157 1.24128 20.1666V1.83338C1.24128 1.48426 1.50735 1.22228 1.86192 1.22228H6.82705C6.90929 1.22342 6.99094 1.20846 7.06726 1.17826C7.14358 1.14807 7.21304 1.10324 7.27161 1.04638C7.33018 0.989515 7.37669 0.92176 7.40844 0.847048C7.44018 0.772336 7.45653 0.692156 7.45653 0.611169C7.45653 0.530182 7.44018 0.450002 7.40844 0.37529C7.37669 0.300578 7.33018 0.232823 7.27161 0.175962C7.21304 0.119102 7.14358 0.0742708 7.06726 0.0440737C6.99094 0.0138766 6.90929 -0.00108413 6.82705 6.11153e-05H1.86192ZM12.9462 5.49048C12.8329 5.50446 12.7257 5.54893 12.6365 5.619C12.5472 5.68906 12.4793 5.782 12.4402 5.88761C12.4011 5.99322 12.3924 6.10739 12.4149 6.21758C12.4374 6.32777 12.4904 6.42971 12.568 6.51218L16.0106 10.3889H4.96513C4.94574 10.388 4.92632 10.388 4.90694 10.3889C4.82543 10.3926 4.74546 10.4122 4.67161 10.4463C4.59775 10.4805 4.53146 10.5287 4.47652 10.5881C4.42158 10.6475 4.37906 10.717 4.35139 10.7926C4.32372 10.8682 4.31145 10.9484 4.31527 11.0287C4.31909 11.1089 4.33893 11.1876 4.37366 11.2604C4.40839 11.3331 4.45732 11.3983 4.51767 11.4524C4.57801 11.5065 4.64859 11.5484 4.72537 11.5756C4.80214 11.6028 4.88361 11.6149 4.96513 11.6111H16.0106L12.568 15.4783C12.4595 15.5999 12.4043 15.759 12.4146 15.9206C12.4249 16.0822 12.4999 16.2332 12.623 16.3406C12.7461 16.4479 12.9074 16.5028 13.0716 16.4933C13.2358 16.4838 13.3894 16.4107 13.4989 16.2899L17.8434 11.401C17.9443 11.2892 18 11.1448 18 10.9952C18 10.8456 17.9443 10.7013 17.8434 10.5894L13.4989 5.70055C13.4319 5.62294 13.3462 5.56307 13.2497 5.52638C13.1531 5.48969 13.0488 5.47735 12.9462 5.49048Z" fill="#A4AEBA"/>
</svg>
