<svg width="27" height="31" fill="none" xmlns="http://www.w3.org/2000/svg"><path d="M13.034 0C7.787 0 3.523 4.292 3.523 9.511c0 3.261 1.177 6.986 3.06 10.271-1.747.443-3.24 1.065-4.381 1.839C.894 22.506 0 23.663 0 25.01c0 .952.453 1.83 1.167 2.554.714.724 1.698 1.324 2.873 1.828C6.39 30.4 9.548 31 13.034 31c3.486 0 6.644-.6 8.994-1.607 1.175-.504 2.16-1.104 2.873-1.828.714-.723 1.167-1.602 1.167-2.554 0-1.554-1.162-2.83-2.829-3.776a.704.704 0 1 0-.694 1.222c1.44.816 2.114 1.727 2.114 2.554 0 .508-.237 1.023-.77 1.564-.534.54-1.355 1.077-2.411 1.53-2.112.905-5.12 1.486-8.444 1.486-3.323 0-6.332-.581-8.443-1.486-1.056-.453-1.878-.99-2.411-1.53-.534-.541-.77-1.056-.77-1.564 0-.718.495-1.486 1.584-2.223 1.033-.7 2.551-1.32 4.37-1.74 1.48 2.264 3.286 4.245 5.274 5.604a.705.705 0 0 0 .792 0c5.122-3.502 9.116-11.112 9.116-17.14C22.546 4.291 18.28 0 13.034 0zm0 1.41c4.48 0 8.102 3.648 8.102 8.101 0 5.22-3.683 12.365-8.102 15.655-4.419-3.29-8.102-10.434-8.102-15.655 0-4.453 3.622-8.102 8.102-8.102zm0 2.817A5.295 5.295 0 0 0 7.75 9.511a5.295 5.295 0 0 0 5.284 5.285 5.295 5.295 0 0 0 5.284-5.285 5.295 5.295 0 0 0-5.284-5.284zm0 1.41A3.864 3.864 0 0 1 16.91 9.51a3.864 3.864 0 0 1-3.875 3.875A3.864 3.864 0 0 1 9.16 9.511a3.864 3.864 0 0 1 3.875-3.875zm7.75 14.442a.705.705 0 1 0 0 1.41.705.705 0 0 0 0-1.41z" fill="#606A78"/></svg>