<svg width="31" height="31" fill="none" xmlns="http://www.w3.org/2000/svg"><path d="M15.474 19.66c3.721 0 7.828-4.473 7.828-10.912 0-5.16-3.189-8.748-7.828-8.748S7.646 3.588 7.646 8.748c0 6.439 4.107 10.911 7.828 10.911zm0-18.087c3.721 0 6.234 2.85 6.234 7.126 0 4.768-3.045 9.289-6.234 9.289-3.19 0-6.233-4.521-6.233-9.289 0-4.227 2.512-7.126 6.233-7.126z" fill="#606A78"/><path d="M21.466 18.185a.821.821 0 0 0-.821.835c0 .492.338.836.821.836 2.755 0 4.784.786 6.089 2.359 1.74 2.064 1.788 5.013 1.74 6.34H1.604c-.048-1.327 0-4.276 1.74-6.34 1.305-1.573 3.383-2.36 6.089-2.36a.821.821 0 0 0 .821-.835c0-.491-.338-.835-.821-.835-3.238 0-5.702.983-7.297 2.949C-.617 24.426.06 29.243.107 29.439l.097.689h30.492l.096-.688c.049-.197.725-5.014-2.03-8.306-1.594-1.966-4.058-2.95-7.296-2.95z" fill="#606A78"/></svg>